<?xml version="1.0" encoding="UTF-8"?>
<svg version="1.1" xmlns="http://www.w3.org/2000/svg" width="512" height="512">
<path d="M0 0 C1.38446823 0.00031723 1.38446823 0.00031723 2.79690552 0.00064087 C17.76029552 0.03477837 31.99474338 1.01111897 46.625 4.375 C47.45854004 4.55691895 48.29208008 4.73883789 49.15087891 4.92626953 C67.89784279 9.0860658 85.76043596 16.25780559 102.625 25.375 C103.2236084 25.69436523 103.8222168 26.01373047 104.43896484 26.34277344 C126.10467432 37.97576545 147.13244644 54.19216007 162.625 73.375 C163.52311251 74.44949048 164.42158507 75.52368005 165.3203125 76.59765625 C201.92986699 120.81756417 218.69624873 176.58584186 214.15844727 233.72387695 C210.01359783 276.42269605 192.9208395 317.32668884 165.625 350.375 C165.17721191 350.91898437 164.72942383 351.46296875 164.26806641 352.0234375 C148.44107081 371.12365603 130.68870293 388.47228594 113.15258789 405.9777832 C109.82880143 409.29582573 106.50959167 412.61840495 103.19165134 415.94229221 C100.60509999 418.53247118 98.01615458 421.12024672 95.42649651 423.70731926 C94.20149571 424.93165933 92.97721958 426.15672496 91.75372505 427.38257027 C86.05082881 433.09403729 80.35839055 438.76398375 74.21470642 444.00767517 C72.18087559 445.75699653 70.28498189 447.61732854 68.40625 449.53125 C67.70113281 450.24410156 66.99601562 450.95695312 66.26953125 451.69140625 C65.56183594 452.41199219 64.85414063 453.13257813 64.125 453.875 C59.39147934 458.69474144 54.60404374 463.33372589 49.48242188 467.74023438 C46.73276729 470.16027737 44.18060476 472.75338812 41.625 475.375 C37.73382141 479.31990897 33.77310009 483.0750639 29.55078125 486.66796875 C26.50838305 489.36478013 23.70174191 492.29034396 20.84765625 495.18359375 C18.20430025 497.78978482 15.43348964 500.20010837 12.6015625 502.59765625 C9.71848388 505.1901479 7.15221445 508.06850117 4.58203125 510.96875 C2.625 512.375 2.625 512.375 0.28125 512.4765625 C-3.56723764 510.88057204 -5.8714237 508.25860015 -8.6875 505.25 C-9.84183177 504.054135 -10.99807242 502.86010953 -12.15625 501.66796875 C-12.71054688 501.09481934 -13.26484375 500.52166992 -13.8359375 499.93115234 C-16.27982865 497.46012408 -18.90384316 495.22786901 -21.55078125 492.98046875 C-24.29563664 490.5647609 -26.81840788 487.94025503 -29.3828125 485.3359375 C-31.27827074 483.47021194 -33.22946735 481.72840745 -35.25 480 C-38.44182509 477.25878551 -41.41802977 474.36814112 -44.375 471.375 C-47.23023683 468.48510172 -50.09000196 465.69048255 -53.1875 463.0625 C-57.51672295 459.36553679 -61.48050476 455.32568842 -65.45629883 451.2565918 C-68.2511313 448.41670235 -71.10206487 445.7137273 -74.12890625 443.12109375 C-78.14362323 439.62474603 -81.91855599 435.94464964 -85.65625 432.15625 C-86.31403442 431.49467896 -86.97181885 430.83310791 -87.64953613 430.15148926 C-90.42566558 427.35921856 -93.19571537 424.56094584 -95.96630859 421.76318359 C-98.0066708 419.70459102 -100.05014331 417.64912097 -102.09375 415.59375 C-102.70545044 414.97375122 -103.31715088 414.35375244 -103.9473877 413.71496582 C-107.68640044 409.95516811 -111.54850317 406.40178855 -115.57237244 402.94810486 C-118.31011699 400.55894841 -120.88118956 398.01792252 -123.4375 395.4375 C-123.95642822 394.91663818 -124.47535645 394.39577637 -125.01000977 393.85913086 C-128.29257938 390.53958033 -131.38935655 387.11465194 -134.41015625 383.5546875 C-137.07214893 380.60162206 -139.91414726 377.84751076 -142.75 375.0625 C-147.56990922 370.30691098 -152.00731237 365.41324653 -156.2109375 360.09375 C-158.46326237 357.26411442 -160.82103605 354.54708056 -163.1875 351.8125 C-173.47369905 339.46586666 -181.95955733 325.60635316 -189.375 311.375 C-189.7472168 310.66327637 -190.11943359 309.95155273 -190.50292969 309.21826172 C-216.60266417 258.58744688 -220.08545696 200.05494175 -202.9375 146.05859375 C-195.16922345 122.40284567 -183.27844337 99.57926807 -167.375 80.375 C-166.91367676 79.81216309 -166.45235352 79.24932617 -165.97705078 78.66943359 C-155.17206414 65.54464962 -143.62421341 53.76318977 -129.98583984 43.58007812 C-128.52800346 42.48946273 -127.08531211 41.37867459 -125.64453125 40.265625 C-99.61093056 20.57303749 -67.55211311 7.43149311 -35.375 2.375 C-34.33069824 2.20129883 -33.28639648 2.02759766 -32.21044922 1.84863281 C-21.45956891 0.21658198 -10.85636209 -0.02301289 0 0 Z " fill="#FC3972" transform="translate(255.375,-0.375)"/>
<path d="M0 0 C1.05815918 0.29535645 1.05815918 0.29535645 2.13769531 0.59667969 C24.80710714 7.06924439 43.94757038 18.85632055 61 35 C61.88429688 35.81984375 62.76859375 36.6396875 63.6796875 37.484375 C81.83653397 54.86968408 93.48344398 76.74416008 100.75 100.625 C100.94883789 101.26880615 101.14767578 101.9126123 101.35253906 102.57592773 C104.64931293 113.94357726 105.34998263 125.35386816 105.31567383 137.11035156 C105.312513 139.36572678 105.33607953 141.61978543 105.36132812 143.875 C105.40444191 153.6298925 104.33826362 162.48924706 102 172 C101.67140991 173.35520752 101.67140991 173.35520752 101.33618164 174.73779297 C95.01594926 199.34252428 83.00200563 220.28334807 66 239 C65.22269531 239.86109375 64.44539062 240.7221875 63.64453125 241.609375 C38.48207339 268.07842615 1.87691505 283.17169395 -34.4375 284.16796875 C-70.67658003 284.53868085 -104.25578572 273.74131769 -132 250 C-132.80824219 249.31421875 -133.61648437 248.6284375 -134.44921875 247.921875 C-161.409601 224.38973602 -180.38991508 190.07371095 -183 154 C-184.41449285 111.81556712 -175.34825287 73.61088721 -146 42 C-145.46358887 41.41976074 -144.92717773 40.83952148 -144.37451172 40.24169922 C-107.69072427 1.01557594 -51.74083047 -14.71269873 0 0 Z " fill="#FEDC00" transform="translate(295,72)"/>
<path d="M0 0 C24.36432927 0 24.36432927 0 33.625 1.6875 C35.19362793 1.95868652 35.19362793 1.95868652 36.79394531 2.23535156 C59.78984641 6.35705964 81.43993627 13.88497221 102 25 C102.5986084 25.31936523 103.1972168 25.63873047 103.81396484 25.96777344 C125.47967432 37.60076545 146.50744644 53.81716007 162 73 C162.89811251 74.07449048 163.79658507 75.14868005 164.6953125 76.22265625 C201.30486699 120.44256417 218.07124873 176.21084186 213.53344727 233.34887695 C209.38859783 276.04769605 192.2958395 316.95168884 165 350 C164.55221191 350.54398437 164.10442383 351.08796875 163.64306641 351.6484375 C147.81607081 370.74865603 130.06370293 388.09728594 112.52758789 405.6027832 C109.20380143 408.92082573 105.88459167 412.24340495 102.56665134 415.56729221 C99.98009999 418.15747118 97.39115458 420.74524672 94.80149651 423.33231926 C93.57649571 424.55665933 92.35221958 425.78172496 91.12872505 427.00757027 C85.42582881 432.71903729 79.73339055 438.38898375 73.58970642 443.63267517 C71.55587559 445.38199653 69.65998189 447.24232854 67.78125 449.15625 C67.07613281 449.86910156 66.37101562 450.58195312 65.64453125 451.31640625 C64.93683594 452.03699219 64.22914063 452.75757813 63.5 453.5 C58.76647934 458.31974144 53.97904374 462.95872589 48.85742188 467.36523438 C46.10776729 469.78527737 43.55560476 472.37838812 41 475 C37.10882141 478.94490897 33.14810009 482.7000639 28.92578125 486.29296875 C25.88338305 488.98978013 23.07674191 491.91534396 20.22265625 494.80859375 C17.58123895 497.41287337 14.80813428 499.81923306 11.98828125 502.2265625 C9.06243449 504.83625686 6.36715528 507.65838479 3.6640625 510.49609375 C2 512 2 512 0 512 C0 460.52 0 409.04 0 356 C7.92 355.01 15.84 354.02 24 353 C60.3318807 347.02436173 93.69002766 327.27971799 115.58984375 297.4453125 C125.49197275 283.52081807 132.77775428 268.6194966 137.8125 252.3125 C138.1027002 251.37470703 138.39290039 250.43691406 138.69189453 249.47070312 C142.18184866 237.68515892 143.35140423 226.31989055 143.31567383 214.07495117 C143.31252829 211.83266825 143.33601427 209.59172911 143.36132812 207.34960938 C143.42457386 193.289514 141.46096375 179.76174871 136.8125 166.4375 C136.51134277 165.55892334 136.21018555 164.68034668 135.89990234 163.77514648 C123.06886625 127.47985564 96.56530062 98.38129599 62.1875 81.328125 C42.03987534 71.91437525 22.27163081 68.93666355 0 67 C0 44.89 0 22.78 0 0 Z " fill="#DE006B" transform="translate(256,0)"/>
<path d="M0 0 C0 17.49 0 34.98 0 53 C-4.95 53 -9.9 53 -15 53 C-15 60.59 -15 68.18 -15 76 C-16.753125 76.37125 -18.50625 76.7425 -20.3125 77.125 C-32.10852124 80.06703367 -41.56041752 85.99990575 -48.3515625 96.09765625 C-54.45854395 106.84999563 -55.39969946 118.1208326 -52.9375 130.0625 C-49.95057196 140.72611226 -43.43960322 149.5446444 -33.92578125 155.2421875 C-31.96947727 156.26319186 -30.04804929 157.17844411 -28 158 C-27.1646875 158.35191406 -26.329375 158.70382813 -25.46875 159.06640625 C-20.54061954 160.3927837 -15.70713295 160.46704889 -10.625 160.625 C-7.11875 160.74875 -3.6125 160.8725 0 161 C0 169.58 0 178.16 0 187 C-16.68456376 187.59060403 -16.68456376 187.59060403 -22 183 C-24.41805004 179.25592252 -25 177.49512007 -25 173 C-34.9 173 -44.8 173 -55 173 C-52.43547484 187.10488836 -49.68311245 198.18038806 -38.0625 207.3125 C-30.40180084 212.61041647 -24.64240677 214.24683513 -15 216 C-15 223.92 -15 231.84 -15 240 C-10.05 240 -5.1 240 0 240 C0 256.17 0 272.34 0 289 C-34.6185308 289 -66.64209003 277.55502744 -93 255 C-93.80824219 254.31421875 -94.61648437 253.6284375 -95.44921875 252.921875 C-122.409601 229.38973602 -141.38991508 195.07371095 -144 159 C-145.41449285 116.81556712 -136.34825287 78.61088721 -107 47 C-106.46358887 46.41976074 -105.92717773 45.83952148 -105.37451172 45.24169922 C-77.63748696 15.58238571 -40.34068704 0 0 0 Z " fill="#FEF672" transform="translate(256,67)"/>
<path d="M0 0 C16.40783959 0 29.92803447 0.76145415 42.21875 12.03515625 C50.68390652 20.98990205 54.78238366 31.11605973 55.3125 43.375 C54.94411836 54.99948715 50.75788407 64.84929798 42.82421875 73.32421875 C38.30679463 77.54516253 33.72923927 80.68392455 28 83 C26.989375 83.4125 25.97875 83.825 24.9375 84.25 C22 85 22 85 15 85 C15 92.92 15 100.84 15 109 C5.1 109 -4.8 109 -15 109 C-15 101.08 -15 93.16 -15 85 C-18.63 84.67 -22.26 84.34 -26 84 C-37.68060004 79.38544196 -46.66696561 71.45810358 -52 60 C-54.5756884 53.54608875 -55 49.19129491 -55 42 C-45.1 42 -35.2 42 -25 42 C-24.01 44.97 -23.02 47.94 -22 51 C-15.4317117 56.97117118 -9.51578849 55.3656141 0 56 C0 37.52 0 19.04 0 0 Z " fill="#FFC300" transform="translate(256,198)"/>
<path d="M0 0 C4.95 0 9.9 0 15 0 C15 35.64 15 71.28 15 108 C-15.41935484 108 -15.41935484 108 -28 96 C-36.95283538 86.62083913 -40.44226875 75.1146847 -40.26953125 62.31640625 C-39.33054573 50.7628018 -34.40534056 41.16956116 -26.08984375 33.16015625 C-18.12317194 26.73119933 -10.11262402 24.12362489 0 23 C0 15.41 0 7.82 0 0 Z " fill="#FFDD00" transform="translate(241,120)"/>
<path d="M0 0 C9.9 0 19.8 0 30 0 C30.99 2.97 31.98 5.94 33 9 C39.5682883 14.97117118 45.48421151 13.3656141 55 14 C55 31.49 55 48.98 55 67 C50.05 67 45.1 67 40 67 C40 59.08 40 51.16 40 43 C36.37 42.67 32.74 42.34 29 42 C17.31939996 37.38544196 8.33303439 29.45810358 3 18 C0.4243116 11.54608875 0 7.19129491 0 0 Z " fill="#FFDD00" transform="translate(201,240)"/>
<path d="M0 0 C4.95 0 9.9 0 15 0 C15 7.59 15 15.18 15 23 C17.64 23.33 20.28 23.66 23 24 C34.74597531 27.54375742 43.48819828 34.65983133 50 45 C53.42501731 52.30525843 55 57.7764363 55 66 C45.1 66 35.2 66 25 66 C24.01 63.36 23.02 60.72 22 58 C15.35751346 51.35751346 11.2487008 53.7030438 0 53 C0 35.51 0 18.02 0 0 Z " fill="#FFC300" transform="translate(256,120)"/>
<path d="M0 0 C16.68456376 -0.59060403 16.68456376 -0.59060403 22 4 C24.63457795 7.54021412 25.22911264 10.25231844 25 14.5625 C24.31097721 19.0600773 22.65110245 21.19799115 19 24 C15.28179795 26.47592572 11.55290445 26.22992624 7.25 26.125 C4.8575 26.08375 2.465 26.0425 0 26 C0 17.42 0 8.84 0 0 Z " fill="#FFDC00" transform="translate(256,228)"/>
<path d="M0 0 C2.7225 0.061875 5.445 0.12375 8.25 0.1875 C8.25 8.4375 8.25 16.6875 8.25 25.1875 C5.548125 25.249375 2.84625 25.31125 0.0625 25.375 C-0.77949951 25.40231201 -1.62149902 25.42962402 -2.48901367 25.45776367 C-7.0739295 25.5084468 -10.03770315 25.17561773 -13.75 22.1875 C-16.63402967 17.81173085 -17.39987517 14.38650136 -16.75 9.1875 C-12.41565906 1.13800968 -8.63159787 -0.27698899 0 0 Z " fill="#FFF672" transform="translate(247.75,172.8125)"/>
</svg>
